<?xml version="1.0" standalone="no"?>
<!DOCTYPE svg PUBLIC "-//W3C//DTD SVG 20010904//EN"
 "http://www.w3.org/TR/2001/REC-SVG-20010904/DTD/svg10.dtd">
<svg version="1.0" xmlns="http://www.w3.org/2000/svg"
 width="283.000000pt" height="306.000000pt" viewBox="0 0 283.000000 306.000000"
 preserveAspectRatio="xMidYMid meet">

<g transform="translate(0.000000,306.000000) scale(0.100000,-0.100000)"
fill="#000000" stroke="none">
<path d="M986 2589 c-259 -187 -342 -249 -296 -224 8 5 29 19 46 32 37 27 52
30 33 6 -11 -16 -11 -16 1 -5 8 7 15 18 15 24 0 10 432 327 447 328 4 0 5 -6
3 -12 -3 -7 -14 -128 -25 -268 -11 -140 -40 -518 -65 -840 -58 -748 -74 -932
-80 -938 -4 -4 -778 -191 -781 -188 -1 0 2 24 5 51 5 35 15 58 34 77 15 15 27
32 27 38 0 5 7 10 15 10 9 0 15 -9 15 -23 0 -34 6 -36 68 -22 31 8 58 12 59
11 2 -1 -11 -18 -27 -37 -30 -35 -36 -49 -22 -49 6 0 61 70 76 96 1 1 21 5 46
9 25 4 41 3 37 -1 -5 -5 -13 -9 -19 -9 -6 0 -18 -11 -26 -24 -16 -23 -16 -24
8 -16 23 7 42 23 58 52 4 7 70 27 147 44 77 17 143 34 147 38 3 3 8 17 10 31
1 14 14 32 28 41 l25 16 49 559 c26 307 59 681 72 829 13 149 24 280 24 293 0
18 4 22 19 17 11 -3 22 -1 26 5 3 5 1 10 -6 10 -8 0 -7 5 3 18 15 17 21 52 8
52 -3 0 -19 -13 -35 -30 -29 -30 -26 -41 5 -17 9 6 2 -1 -14 -18 -26 -24 -31
-26 -34 -12 -2 9 -8 17 -13 17 -6 0 -94 -57 -197 -128 -103 -70 -220 -150
-261 -177 -40 -28 -77 -60 -82 -73 -5 -13 -13 -21 -17 -18 -5 3 -9 0 -9 -7 -1
-7 -26 -219 -58 -472 -73 -596 -101 -833 -110 -922 -4 -40 -11 -73 -15 -73 -4
0 -18 -15 -30 -32 l-22 -33 6 40 c3 22 6 51 6 65 0 14 5 32 10 40 9 13 11 13
20 0 10 -16 12 -11 14 32 2 32 -8 36 -24 11 -9 -15 -10 -12 -6 16 4 19 13 39
21 45 16 11 31 66 19 66 -4 0 -13 -8 -21 -18 -12 -15 -13 -15 -9 8 21 115 137
1081 134 1114 -2 17 -18 -90 -36 -239 -121 -969 -161 -1286 -166 -1294 -3 -5
2 -18 12 -30 17 -20 24 -22 407 -76 17 -3 156 -23 310 -45 154 -23 343 -50
419 -61 l139 -20 430 76 c236 42 439 80 451 85 40 15 58 45 53 91 l-4 44 -1
-46 c-2 -56 -19 -70 -105 -89 -47 -11 -62 -11 -81 0 -14 7 -32 10 -40 7 -9 -4
-16 -3 -16 1 0 4 -29 5 -65 4 -36 -2 -65 -8 -65 -13 0 -8 55 -14 108 -11 12 0
22 -3 22 -7 0 -13 -64 -20 -124 -14 -48 5 -53 7 -40 21 8 8 13 17 10 20 -3 3
-152 26 -331 52 -179 25 -323 49 -319 53 3 3 19 3 35 0 40 -8 36 10 -6 26 -27
9 -39 9 -57 0 -22 -12 -22 -12 -3 -21 14 -6 10 -7 -15 -4 -19 3 -91 12 -160
22 l-125 16 -225 -51 c-124 -28 -238 -55 -255 -60 l-30 -8 25 -10 c14 -5 221
-38 460 -72 l436 -63 264 42 c185 30 265 39 268 31 2 -6 11 -12 20 -12 10 -1
-1 -5 -23 -9 -22 -5 -44 -4 -50 1 -12 12 -55 11 -55 -1 0 -5 8 -11 18 -11 9
-1 -5 -5 -33 -10 -301 -55 -389 -69 -403 -65 -9 3 -48 10 -87 16 -38 5 -209
30 -380 55 -171 25 -316 45 -323 45 -7 0 -11 4 -8 8 2 4 -11 6 -31 4 -19 -3
-45 1 -58 8 -13 7 -33 10 -44 7 -12 -3 -24 -1 -27 4 -3 5 4 9 16 9 13 0 18 4
14 11 -3 6 -18 8 -33 5 -19 -5 -22 -4 -11 3 20 13 12 19 -38 27 -28 4 -42 3
-42 -5 0 -6 -11 -11 -25 -11 -14 0 -25 -5 -25 -11 0 -12 -109 -2 -125 12 -5 6
-2 9 8 9 9 0 188 41 397 90 l379 91 253 -41 c139 -22 294 -47 343 -55 385 -63
719 -115 737 -115 54 0 -7 19 -112 34 -63 9 -135 21 -160 26 -57 12 -279 47
-345 55 -27 3 -95 14 -150 24 -55 11 -165 29 -245 41 -80 13 -149 27 -155 33
-7 7 -6 8 3 2 8 -4 19 0 27 11 22 29 18 39 -7 18 -13 -10 -17 -12 -10 -4 21
24 13 34 -10 14 l-22 -19 18 28 c23 38 14 46 -11 10 -35 -51 -38 -57 -20 -50
10 4 17 2 17 -4 0 -8 -16 -9 -47 -4 -99 14 -102 16 -83 75 l8 25 1 -27 c1 -32
9 -35 26 -11 11 14 10 19 -4 29 -13 10 -14 15 -3 25 6 7 12 20 12 28 -1 12 -7
9 -22 -9 l-21 -25 6 50 c3 28 15 183 27 345 19 273 40 551 75 1005 8 99 21
269 30 378 8 109 18 203 21 209 4 6 22 8 40 5 41 -7 44 -2 7 10 -26 9 -50 -6
-317 -198z m124 -84 c10 6 12 0 7 -25 -4 -18 -7 -58 -8 -89 -1 -46 -2 -51 -8
-25 -11 42 -18 52 -53 70 -25 13 -35 13 -59 4 -39 -16 -89 -75 -89 -104 0 -19
-4 -22 -30 -18 -23 3 -36 -3 -60 -26 -33 -34 -38 -66 -14 -93 13 -14 21 -16
35 -8 21 11 26 55 7 61 -8 3 -7 6 3 10 49 19 40 -32 -21 -129 l-30 -47 6 45
c6 43 4 48 -27 77 -19 18 -40 32 -46 32 -18 0 -53 -37 -53 -55 0 -13 -4 -14
-20 -5 -11 6 -25 8 -30 5 -6 -3 -10 -4 -10 -1 0 2 35 29 78 59 42 29 136 95
208 145 72 51 134 92 138 92 3 0 6 -6 6 -14 0 -21 19 -30 35 -16 18 15 1 54
-18 45 -7 -4 -3 1 7 9 14 11 22 13 27 5 4 -7 12 -8 19 -4z m-45 -100 c29 -28
32 -71 9 -120 -18 -39 -49 -64 -153 -125 -70 -42 -111 -86 -111 -120 0 -12 2
-13 9 -1 5 7 14 10 20 7 15 -10 -4 -46 -24 -46 -29 0 -16 60 31 146 51 93 54
127 13 132 -15 2 -31 -4 -39 -13 -12 -15 -12 -18 4 -27 13 -8 15 -13 5 -24
-16 -19 -29 -8 -29 25 0 52 65 86 99 52 27 -27 26 -37 -4 -90 -14 -24 -23 -46
-21 -48 14 -14 151 87 171 127 20 39 19 62 -6 94 -25 31 -47 33 -83 5 -30 -23
-34 -47 -8 -45 12 1 17 -6 17 -24 0 -18 -5 -25 -20 -25 -16 0 -21 8 -23 41 -3
36 1 45 33 73 43 37 77 40 110 6z m-37 -37 c17 -17 15 -64 -4 -93 -16 -24
-104 -95 -118 -95 -4 0 0 10 8 22 9 12 16 30 16 39 0 17 28 31 65 33 20 1 29
34 10 39 -23 5 -51 42 -42 55 12 15 49 16 65 0z m67 -160 c-3 -46 -10 -132
-17 -193 -6 -60 -16 -166 -22 -235 -11 -122 -12 -125 -35 -125 -13 0 -26 -6
-29 -14 -3 -10 0 -12 14 -7 17 7 17 6 -1 -14 -10 -11 -16 -23 -13 -26 3 -3 15
6 26 20 11 15 23 26 27 26 4 0 -5 -14 -20 -32 -16 -19 -23 -34 -16 -36 6 -2 8
-9 4 -15 -5 -7 -8 -36 -9 -65 0 -39 3 -51 13 -48 13 5 18 -15 6 -27 -3 -4 -7
-28 -7 -54 -1 -27 -3 -75 -5 -108 l-3 -60 -10 40 c-5 22 -10 127 -11 232 -1
106 -5 193 -8 193 -12 0 -49 -81 -99 -214 l-52 -139 52 -52 c29 -30 68 -61 86
-71 37 -20 38 -24 28 -123 l-7 -62 -17 28 c-16 25 -16 29 -2 40 8 7 12 16 8
20 -4 5 -13 1 -20 -9 -10 -14 -15 -14 -36 -2 -14 7 -41 13 -61 14 -50 0 -99
11 -99 21 0 5 6 6 14 3 9 -3 21 5 31 20 16 24 16 28 1 51 -21 33 -49 32 -76
-2 -18 -23 -21 -36 -15 -73 3 -25 7 -53 8 -62 1 -9 4 -15 8 -13 13 9 50 -44
56 -78 7 -43 -18 -90 -42 -81 -12 5 -10 10 8 24 18 15 20 22 11 37 -7 10 -22
17 -35 17 -23 -2 -24 1 -25 61 -2 88 -14 163 -24 145 -13 -25 -40 -170 -40
-218 0 -42 -1 -44 -14 -26 -13 16 -18 17 -35 6 -28 -16 -26 -8 8 42 53 77 60
150 17 185 -13 11 -20 11 -41 -3 -14 -9 -25 -23 -25 -31 0 -8 -4 -15 -9 -15
-22 0 -18 19 15 67 l36 50 -12 79 c-22 155 -32 204 -41 204 -5 0 -9 -6 -9 -14
0 -7 -8 -24 -19 -37 -10 -13 -21 -33 -24 -44 -4 -16 -5 -15 -6 6 -2 46 11 90
24 85 13 -5 35 12 35 27 0 4 -5 5 -11 1 -8 -4 -9 0 -4 15 5 15 2 21 -9 21 -19
0 -19 -8 4 160 l19 135 -2 -149 c-1 -112 1 -150 11 -153 6 -3 12 1 12 9 0 7
20 74 44 148 l43 135 -48 34 c-52 37 -54 42 -43 124 l7 46 20 -25 c17 -22 26
-25 57 -21 35 4 36 3 32 -22 -2 -17 2 -32 12 -40 14 -11 20 -9 46 19 16 18 30
28 30 24 0 -5 5 -1 11 9 10 17 12 17 23 1 9 -11 19 -14 34 -10 26 9 39 50 22
71 -7 8 -10 21 -7 28 8 21 187 128 200 120 7 -3 9 -3 5 2 -4 4 4 21 17 37 14
16 25 34 25 39 0 5 2 9 5 9 3 0 2 -37 0 -82z m-350 -12 c0 -11 -6 -21 -14 -24
-9 -3 -11 1 -6 17 7 23 -4 28 -24 9 -10 -11 -11 -9 -5 5 9 24 49 19 49 -7z
m-58 -63 c-3 -10 -5 -2 -5 17 0 19 2 27 5 18 2 -10 2 -26 0 -35z m-33 21 c4
-9 -1 -28 -11 -43 -12 -19 -18 -22 -21 -11 -3 8 0 16 7 18 17 6 13 30 -6 41
-16 9 -16 10 3 11 12 0 25 -7 28 -16z m83 -1 c4 3 8 -19 8 -48 l0 -53 -17 27
c-10 15 -21 43 -25 62 -6 31 -5 33 10 21 9 -8 20 -12 24 -9z m34 -74 l-9 -34
-1 47 c-1 25 2 55 7 65 12 29 15 -38 3 -78z m-161 -29 c8 -6 29 -9 45 -9 17 1
38 -2 49 -6 16 -7 17 -5 11 15 -5 15 -4 20 4 16 6 -4 11 -27 11 -51 0 -34 -5
-47 -19 -55 -14 -7 -22 -7 -26 0 -10 17 3 40 22 40 16 0 16 1 0 17 -14 14 -22
15 -54 5 -35 -11 -39 -10 -60 13 -14 16 -23 38 -22 58 l1 32 11 -33 c7 -18 19
-37 27 -42z m80 18 c0 -15 -78 -9 -83 6 -4 9 0 12 13 9 12 -3 23 3 32 16 l13
21 12 -23 c7 -12 12 -25 13 -29z m-92 -207 c12 -11 22 -27 21 -38 0 -15 -1
-15 -9 3 -5 12 -19 29 -32 38 -12 9 -18 16 -13 16 6 -1 20 -9 33 -19z m-11
-58 c-3 -10 -5 -4 -5 12 0 17 2 24 5 18 2 -7 2 -21 0 -30z m20 -25 c-3 -8 -6
-5 -6 6 -1 11 2 17 5 13 3 -3 4 -12 1 -19z m-40 -121 c-12 -37 -15 -31 -9 23
4 34 7 40 12 25 4 -11 3 -33 -3 -48z m391 -149 c-1 -46 -3 -64 -5 -40 -2 23
-8 42 -12 42 -4 0 -23 -46 -40 -101 l-33 -102 43 -38 c50 -44 56 -46 61 -21 3
9 6 0 9 -20 4 -32 3 -35 -12 -27 -10 5 -41 30 -70 57 l-52 48 13 39 c19 59 92
245 96 245 2 0 3 -37 2 -82z m68 24 c-17 -16 -18 -16 -5 5 7 12 15 20 18 17 3
-2 -3 -12 -13 -22z m-84 -261 c-1 -3 -14 6 -27 20 l-25 24 23 69 22 70 5 -90
c3 -49 4 -91 2 -93z m-430 137 c-7 -7 -12 -8 -12 -2 0 14 12 26 19 19 2 -3 -1
-11 -7 -17z m31 -8 c3 -11 1 -23 -4 -26 -5 -3 -9 6 -9 20 0 31 6 34 13 6z
m-33 -31 c0 -11 -4 -18 -10 -14 -5 3 -7 12 -3 20 7 21 13 19 13 -6z m-30 -15
c-1 -4 3 -10 9 -14 8 -5 5 -46 -12 -146 -25 -142 -25 -174 1 -136 8 12 19 22
25 22 5 0 3 -8 -6 -18 -20 -22 -21 -32 -4 -32 19 0 59 45 50 56 -5 5 1 2 12
-7 11 -9 26 -18 33 -20 11 -4 9 -10 -6 -29 l-19 -24 -8 23 c-5 18 -9 20 -21
10 -8 -6 -14 -16 -14 -21 0 -6 7 -5 15 2 12 10 15 10 15 -3 0 -8 -20 -27 -44
-41 -25 -14 -56 -41 -70 -58 l-26 -33 5 30 c8 45 45 331 52 405 3 36 8 59 10
53 3 -7 4 -15 3 -19z m487 -56 c-2 -18 -4 -6 -4 27 0 33 2 48 4 33 2 -15 2
-42 0 -60z m-440 30 c-3 -7 -5 -2 -5 12 0 14 2 19 5 13 2 -7 2 -19 0 -25z
m-10 -50 c-3 -8 -6 -5 -6 6 -1 11 2 17 5 13 3 -3 4 -12 1 -19z m13 -55 c-11
-17 -11 -17 -6 0 3 10 7 28 7 40 2 22 2 22 6 0 2 -12 -1 -30 -7 -40z m-6 -70
c-27 -40 -44 -58 -41 -43 4 14 7 39 8 55 1 17 3 22 6 13 2 -10 8 -18 12 -18
10 0 51 74 52 96 1 11 4 7 6 -8 3 -20 -8 -45 -43 -95z m-17 75 c-3 -8 -6 -5
-6 6 -1 11 2 17 5 13 3 -3 4 -12 1 -19z m286 -50 c6 -8 7 -23 4 -32 -8 -20
-37 -21 -37 0 0 8 -4 12 -10 9 -15 -9 -12 -41 4 -58 8 -8 45 -17 82 -20 37 -4
77 -13 89 -21 32 -21 55 -77 55 -136 0 -44 -4 -56 -29 -81 -50 -49 -111 -29
-111 37 0 34 29 62 50 49 25 -15 1 -69 -26 -58 -19 7 -18 -21 1 -37 24 -20 62
2 70 39 9 41 -20 137 -50 167 -13 13 -36 24 -50 24 -37 0 -92 25 -104 48 -8
15 -8 29 0 49 17 44 42 53 62 21z m-173 -53 c20 -25 6 -99 -30 -155 l-32 -50
20 -40 c11 -23 16 -43 10 -46 -14 -9 -20 1 -28 43 l-8 38 -1 -37 c-1 -44 23
-75 45 -57 18 15 18 37 -1 55 -14 15 -10 44 6 44 15 0 31 -52 24 -80 -9 -36
-35 -61 -57 -54 -20 6 -25 -12 -5 -19 15 -5 48 11 64 32 7 9 13 34 14 56 1 24
3 31 6 18 6 -31 19 -29 27 3 l7 27 17 -34 c24 -48 63 -60 102 -31 23 17 30 19
30 8 0 -23 51 -58 76 -52 18 5 21 2 17 -13 -4 -15 -45 -27 -231 -70 -309 -72
-282 -68 -282 -38 0 14 -6 27 -13 30 -9 3 -12 16 -9 37 l5 33 13 -31 c15 -37
47 -56 80 -48 26 7 59 60 50 82 -3 8 -2 14 2 14 4 0 7 30 7 68 0 53 5 73 23
99 29 40 28 47 -3 27 -14 -9 -23 -20 -20 -24 3 -4 -2 -25 -11 -46 -9 -21 -14
-49 -12 -64 4 -23 1 -26 -21 -22 -16 3 -29 -1 -38 -13 -13 -18 -13 -18 -13 1
0 23 32 77 69 119 15 17 18 23 6 15 -36 -27 -64 -65 -81 -108 -29 -74 10 -154
54 -110 7 7 12 23 12 37 0 24 -1 24 -14 5 -14 -18 -15 -18 -21 -1 -10 25 2 49
22 45 34 -6 28 -89 -7 -108 -43 -23 -83 25 -82 96 2 74 40 124 134 178 51 29
62 43 71 94 7 35 -7 45 -16 10 -5 -18 -8 -19 -21 -8 -19 15 -20 32 -4 48 16
16 33 15 48 -3z m59 -190 c-11 -39 -12 -39 -21 -15 -9 24 6 161 21 185 12 20
12 -131 0 -170z m157 106 c41 -11 58 -35 79 -109 l7 -24 -21 21 c-17 17 -26
19 -40 11 -16 -8 -20 -5 -25 25 -4 19 -20 48 -37 65 -17 16 -25 28 -17 25 7
-2 31 -9 54 -14z m-25 -54 c29 -70 5 -147 -48 -147 -51 0 -85 77 -44 100 14 7
22 7 26 0 11 -17 -4 -43 -20 -36 -18 6 -19 1 -5 -25 17 -31 57 -24 76 12 20
40 12 88 -24 131 l-27 32 27 -18 c14 -9 32 -31 39 -49z m104 -126 c-3 -12 -15
-21 -25 -21 -18 0 -18 2 3 23 26 27 31 26 22 -2z m-437 -126 c-10 -11 -28 10
-28 33 0 8 6 6 19 -5 11 -11 14 -22 9 -28z m732 -179 c36 -8 55 -14 42 -15
-14 -1 -21 -5 -16 -12 4 -7 -3 -10 -19 -7 -15 1 -27 -1 -29 -7 -2 -6 27 -11
68 -13 54 -2 74 1 84 13 10 12 10 15 -5 15 -10 0 -16 2 -13 5 9 10 312 -38
323 -50 15 -18 46 -32 88 -39 30 -6 37 -4 37 9 0 8 8 15 18 15 28 0 266 -34
256 -36 -5 -2 -127 -22 -271 -44 l-262 -41 -238 35 c-346 51 -588 86 -598 87
-21 1 412 97 440 98 17 0 59 -6 95 -13z m-707 -103 c-13 -2 -35 -2 -50 0 -16
2 -5 4 22 4 28 0 40 -2 28 -4z"/>
<path d="M1055 2170 c-3 -5 -12 -7 -20 -3 -11 3 -15 -2 -15 -19 0 -16 -22 -46
-70 -93 -38 -38 -70 -73 -70 -78 0 -17 93 -278 97 -273 2 2 26 110 52 240 42
207 49 262 26 226z m-43 -245 l-39 -189 -26 79 c-14 44 -28 92 -31 107 -3 14
-9 33 -12 42 -7 19 103 139 120 129 6 -3 8 -3 4 2 -4 4 -2 15 4 23 7 8 14 10
15 5 2 -4 -14 -94 -35 -198z"/>
<path d="M965 2030 l-49 -50 18 -75 c10 -41 21 -75 25 -75 4 0 13 34 20 76 7
42 18 98 25 125 7 27 12 49 12 49 -1 0 -24 -22 -51 -50z m10 -67 c-9 -77 -17
-95 -26 -63 -12 44 -9 83 8 102 9 10 18 18 21 18 2 0 1 -25 -3 -57z"/>
<path d="M963 2144 c-18 -8 -33 -19 -33 -24 0 -6 -6 -10 -14 -10 -17 0 -41
-28 -32 -37 3 -4 13 2 21 13 20 26 19 4 -1 -24 -30 -43 -6 -34 44 15 45 44 71
84 54 82 -4 0 -22 -7 -39 -15z"/>
<path d="M603 1954 c-36 -36 -40 -46 -20 -43 23 3 52 -3 40 -8 -7 -2 -13 -9
-13 -15 0 -6 7 -7 16 -4 8 3 12 2 9 -4 -9 -15 9 -12 31 5 16 12 17 16 4 24 -8
5 -18 7 -23 4 -5 -3 -4 4 2 15 18 34 12 49 -10 22 -19 -24 -20 -24 -9 -2 19
38 7 41 -27 6z"/>
<path d="M585 1969 c-4 -6 -5 -13 -2 -16 7 -7 27 6 27 18 0 12 -17 12 -25 -2z"/>
<path d="M747 1918 l-77 -42 -50 -158 -50 -157 10 -129 c5 -71 15 -142 22
-156 12 -27 16 -28 63 -11 18 6 18 5 3 -5 -22 -13 -24 -45 -4 -37 8 3 17 1 19
-6 3 -7 10 1 16 17 8 19 8 31 2 36 -6 3 12 16 39 29 27 13 54 29 60 36 14 17
130 315 130 334 0 15 -36 140 -68 235 -10 27 -21 51 -27 52 -5 2 -45 -15 -88
-38z m125 -367 l-47 -125 -6 45 c-6 41 -6 40 -4 -11 3 -78 -19 -134 -40 -100
-3 6 -11 10 -17 10 -6 0 -4 -8 5 -18 16 -17 13 -20 -60 -50 -58 -23 -79 -28
-85 -19 -15 24 -7 34 50 57 31 12 62 28 69 34 6 6 26 47 43 91 17 44 43 109
57 145 15 36 27 66 29 68 1 2 12 -2 24 -8 18 -10 21 -9 18 2 -3 7 -13 14 -24
16 -16 2 -27 25 -53 102 -18 55 -38 100 -44 100 -7 0 -34 -11 -60 -24 -26 -13
-46 -19 -44 -12 5 15 117 77 127 71 5 -3 12 0 16 7 4 7 26 -45 51 -123 l43
-134 -48 -124z m-47 218 c14 -44 23 -84 21 -88 -3 -4 -19 -6 -35 -3 -32 4 -33
6 -57 105 -6 27 -24 38 -24 14 0 -6 -13 -51 -29 -99 -15 -48 -24 -85 -19 -82
5 3 13 16 18 28 7 17 9 18 9 3 1 -10 10 -27 21 -39 24 -26 24 -28 6 -93 l-14
-50 -1 72 c-1 74 -7 88 -31 73 -31 -19 -38 0 -20 58 10 31 23 76 29 99 9 34
20 47 49 63 20 10 40 19 44 20 4 0 19 -36 33 -81z m-25 -102 l35 -10 -50 -12
c-27 -6 -52 -10 -54 -9 -2 2 0 31 5 66 l7 63 11 -44 c10 -39 16 -46 46 -54z
m20 -59 c0 -2 -19 -52 -43 -112 -40 -105 -44 -110 -83 -127 l-41 -17 -7 95
c-4 52 -5 97 -2 100 3 3 11 3 19 0 9 -3 19 -35 27 -87 7 -45 16 -78 20 -73 4
4 20 49 35 98 25 84 47 125 67 125 4 0 8 -1 8 -2z m-189 -205 c2 -29 0 -56 -4
-59 -4 -4 -7 4 -7 18 0 14 -3 47 -6 74 -4 34 -2 44 4 34 6 -8 12 -39 13 -67z"/>
<path d="M782 1790 c-7 -11 -8 -20 -2 -20 5 0 16 -12 24 -27 8 -16 15 -23 15
-18 0 6 -6 21 -13 34 -8 14 -12 31 -9 38 8 20 -1 16 -15 -7z"/>
<path d="M1021 1821 c-6 -10 -8 -21 -4 -24 3 -4 0 -13 -7 -22 -10 -13 -9 -15
7 -15 27 0 34 9 23 31 -7 12 -7 20 0 24 5 3 10 10 10 16 0 16 -19 10 -29 -10z"/>
<path d="M727 1253 c-12 -11 -8 -23 8 -23 8 0 15 7 15 15 0 16 -12 20 -23 8z"/>
<path d="M890 1185 c-13 -14 -19 -25 -13 -25 12 0 48 38 41 45 -2 3 -15 -6
-28 -20z"/>
<path d="M901 1164 c-17 -14 -31 -31 -31 -36 0 -6 10 -3 21 8 22 19 22 19 10
-3 -14 -27 3 -32 18 -5 6 9 11 13 11 8 0 -5 -7 -18 -17 -28 -18 -20 -4 -25 16
-5 10 10 11 9 6 -5 -9 -22 8 -24 25 -3 10 12 10 15 0 15 -9 0 -10 3 -1 14 13
15 -1 66 -18 66 -5 0 -23 -12 -40 -26z"/>
<path d="M721 2124 c0 -11 3 -14 6 -6 3 7 2 16 -1 19 -3 4 -6 -2 -5 -13z"/>
<path d="M1030 540 c0 -5 -17 -10 -37 -10 -64 0 -22 -17 60 -24 51 -5 77 -3
77 4 0 5 -19 11 -42 12 l-43 1 38 4 c52 6 46 23 -8 23 -25 0 -45 -4 -45 -10z"/>
<path d="M915 480 c-4 -6 15 -10 50 -10 35 0 54 -4 50 -10 -4 -6 7 -10 27 -10
51 0 77 10 71 26 -4 11 -28 14 -98 14 -52 0 -97 -4 -100 -10z"/>
<path d="M1147 483 c-16 -15 -4 -21 36 -16 l42 5 -29 -16 c-15 -9 -32 -13 -38
-10 -13 8 -58 -4 -58 -16 0 -5 12 -9 28 -8 15 0 44 -3 65 -7 27 -6 37 -4 37 5
0 8 -9 11 -26 7 -14 -2 -22 -1 -17 4 10 10 96 30 102 23 2 -2 -1 -4 -7 -4 -7
0 -12 -5 -12 -11 0 -6 8 -8 18 -5 9 3 31 8 47 11 29 5 29 5 5 -6 l-25 -11 26
-9 c31 -11 101 2 107 20 3 9 -2 11 -17 6 -13 -4 -21 -2 -21 5 0 7 -8 9 -20 5
-12 -4 -20 -2 -20 6 0 8 -10 9 -31 5 -21 -4 -35 -1 -46 9 -15 15 -133 22 -146
8z"/>
<path d="M1626 434 c-9 -23 -7 -34 5 -34 6 0 8 7 5 17 -6 15 -4 15 14 -2 22
-20 27 -9 6 18 -16 21 -22 21 -30 1z"/>
<path d="M1660 441 c0 -5 14 -14 31 -20 39 -13 39 -13 39 -2 0 5 -14 14 -31
20 -39 13 -39 13 -39 2z"/>
<path d="M1531 419 c-21 -17 -22 -22 -10 -30 7 -5 17 -9 21 -9 12 0 38 31 38
46 0 20 -21 17 -49 -7z"/>
<path d="M1590 405 c0 -8 5 -15 10 -15 6 0 10 7 10 15 0 8 -4 15 -10 15 -5 0
-10 -7 -10 -15z"/>
<path d="M1431 2737 c8 -10 151 -58 156 -53 2 2 -26 14 -64 26 -37 13 -75 25
-83 28 -8 3 -12 2 -9 -1z"/>
<path d="M1157 2674 c-21 -20 -25 -29 -17 -39 8 -10 6 -17 -9 -27 -12 -8 -18
-18 -15 -21 4 -4 24 6 45 21 37 26 49 42 31 42 -4 0 -12 -3 -18 -7 -5 -5 1 2
14 15 13 12 20 27 17 32 -9 15 -18 12 -48 -16z"/>
<path d="M1670 2651 c28 -16 523 -181 528 -176 3 3 3 5 0 5 -4 0 -125 41 -269
90 -259 89 -289 98 -259 81z"/>
<path d="M1090 2620 c-9 -6 -10 -10 -3 -10 6 0 15 5 18 10 8 12 4 12 -15 0z"/>
<path d="M1383 2609 c-3 -10 -14 -19 -24 -19 -23 0 -25 -17 -44 -330 -8 -135
-21 -355 -30 -490 -59 -899 -60 -932 -48 -937 7 -3 13 -16 13 -29 0 -16 7 -25
23 -28 42 -10 1043 -166 1059 -166 4 0 8 7 8 16 0 9 9 18 20 21 17 5 20 14 20
67 0 104 29 1211 36 1383 6 146 5 163 -10 169 -10 4 -14 13 -11 24 3 10 2 21
-3 24 -5 3 -103 34 -218 70 -282 87 -645 200 -723 225 -62 19 -63 19 -68 0z
m67 -29 l25 -8 -26 -1 c-34 -1 -79 -44 -79 -74 0 -13 9 -32 21 -43 28 -25 55
-8 53 35 -2 31 -2 31 50 31 28 0 57 -4 64 -8 8 -6 2 -9 -17 -9 -60 0 -121 -67
-121 -134 0 -35 12 -57 72 -131 41 -51 45 -82 14 -112 -25 -25 -69 -34 -92
-18 -17 11 -34 48 -34 73 0 21 1 21 19 5 22 -20 44 -13 61 19 11 20 10 28 -4
50 -22 34 -48 32 -92 -7 l-37 -33 6 50 c3 28 9 107 13 176 6 114 8 126 28 136
26 13 43 14 76 3z m89 -40 c8 -5 -6 -6 -32 -3 -34 4 -54 1 -73 -12 -24 -15
-24 -18 -8 -29 18 -14 12 -36 -11 -36 -19 0 -37 34 -29 55 15 38 101 52 153
25z m232 -60 c42 -12 46 -16 35 -32 -15 -24 4 -54 33 -51 25 3 18 -23 -8 -30
-38 -9 -90 21 -163 95 l-73 74 65 -21 c36 -12 86 -28 111 -35z m-14 -114 c18
-9 40 -16 50 -16 28 0 63 28 63 50 0 16 -5 19 -31 13 -27 -5 -31 -3 -27 13 5
27 57 27 140 1 62 -19 66 -22 53 -37 -37 -41 6 -140 61 -140 21 0 22 -3 14
-25 -17 -45 23 -105 71 -105 37 0 80 38 82 73 l2 28 18 -22 c9 -12 17 -29 17
-39 0 -27 -11 -51 -20 -45 -5 3 -12 0 -16 -6 -5 -8 -3 -9 6 -4 8 5 11 3 8 -6
-3 -8 -11 -14 -19 -14 -8 -1 -13 -6 -12 -12 1 -6 -9 -21 -22 -33 -29 -27 -34
-17 -8 14 13 15 10 14 -10 -3 -18 -16 -23 -27 -16 -32 6 -4 8 -12 4 -19 -12
-20 -8 -76 9 -107 17 -34 70 -63 114 -63 18 0 43 11 61 26 l31 26 -1 -159 c-1
-95 -4 -148 -9 -133 -4 14 -8 36 -9 50 -1 14 -10 43 -21 64 -10 22 -17 43 -14
48 3 5 2 7 -3 6 -9 -3 -92 62 -138 108 -20 20 -37 54 -49 95 -10 35 -21 72
-23 82 -4 13 1 17 21 17 16 0 26 5 26 15 0 8 -8 15 -17 15 -15 0 -16 -2 -3
-10 12 -8 11 -10 -7 -10 -14 0 -29 13 -47 44 -27 46 -57 71 -100 82 -14 3 -24
9 -22 13 5 8 -21 11 -92 11 -111 0 -165 -53 -174 -173 -7 -88 -16 -97 -90 -97
-36 0 -71 -6 -91 -17 -18 -9 -36 -16 -42 -14 -5 1 -7 -1 -3 -4 10 -10 -19 -65
-34 -65 -6 0 -19 -7 -29 -16 -20 -18 -43 -9 -34 13 5 13 3 14 -10 3 -25 -21
-36 -47 -20 -47 7 0 11 6 8 14 -3 7 0 13 5 13 23 0 20 -19 -9 -58 -17 -23 -34
-54 -39 -69 -6 -22 -8 -14 -9 37 -1 82 17 358 25 384 6 18 7 18 16 3 5 -10 7
-21 4 -25 -3 -5 10 -24 29 -42 19 -19 35 -29 35 -23 0 6 23 13 50 15 38 4 58
12 81 33 38 37 52 38 66 8 12 -25 12 -25 -7 -8 -25 22 -26 9 -3 -19 10 -12 11
-15 3 -8 -16 14 -30 16 -30 4 0 -4 14 -16 31 -26 22 -13 30 -14 28 -4 -3 27 1
38 16 38 18 0 19 9 0 34 -7 10 -18 15 -24 12 -5 -4 -12 -2 -16 4 -4 6 -10 8
-14 6 -4 -3 -7 21 -7 54 1 32 -1 58 -4 57 -3 -1 -29 24 -58 56 -61 67 -68 103
-26 136 15 12 37 21 50 21 22 0 22 -1 -7 -29 -47 -47 -31 -124 33 -157 77 -40
169 36 109 90 -28 25 -65 12 -58 -20 5 -27 -13 -33 -33 -10 -17 21 -9 61 12
60 10 -1 15 2 12 7 -12 20 56 8 83 -15 43 -35 68 -46 110 -46 49 0 83 29 83
70 0 16 -4 31 -9 35 -6 3 -8 -8 -4 -28 4 -28 1 -37 -18 -51 -39 -27 -81 -20
-145 24 -68 46 -95 50 -129 15 -31 -30 -31 -52 -3 -82 23 -25 35 -28 57 -14
12 8 12 12 2 25 -13 15 -8 36 9 36 13 0 40 -30 40 -45 0 -25 -31 -45 -71 -45
-50 0 -89 37 -89 85 0 43 18 63 70 79 l45 14 -28 11 c-54 21 -96 14 -133 -23
-19 -19 -34 -41 -34 -50 0 -26 25 -68 60 -101 65 -62 77 -123 34 -174 -14 -17
-43 -36 -64 -42 -34 -10 -42 -9 -74 11 -38 23 -66 65 -66 99 0 33 49 83 79 79
22 -2 26 -8 26 -33 0 -37 -33 -49 -42 -16 -8 33 -33 6 -33 -36 0 -25 8 -43 29
-64 33 -33 50 -35 91 -14 60 31 66 84 15 147 -57 70 -76 118 -64 161 17 63 82
99 145 79 33 -10 41 -6 27 14 -5 6 19 -17 52 -52 33 -34 74 -69 92 -78z m297
28 c9 -3 16 -12 16 -20 0 -17 -12 -18 -27 -3 -9 9 -14 5 -19 -15 -15 -61 34
-97 105 -76 19 5 37 6 40 1 4 -5 20 -12 38 -15 18 -4 46 -21 62 -39 25 -25 31
-39 31 -74 0 -53 -16 -87 -64 -132 -29 -28 -36 -42 -36 -73 0 -52 35 -88 85
-88 58 0 89 44 65 91 -12 21 -32 26 -24 6 3 -8 -1 -19 -9 -26 -21 -16 -45 14
-30 37 16 26 49 26 67 0 22 -31 20 -60 -5 -92 -44 -56 -158 -20 -172 54 -9 42
7 76 59 132 40 43 49 65 45 108 -4 32 -25 60 -58 75 -41 20 -51 15 -23 -10 26
-24 25 -53 -2 -82 -43 -46 -112 -13 -106 50 3 35 31 49 42 22 4 -12 0 -19 -14
-22 -11 -3 -20 -12 -20 -20 0 -15 12 -11 42 14 9 8 14 22 11 31 -4 10 -2 13 5
8 31 -19 0 -85 -33 -72 -9 3 -13 2 -10 -4 18 -28 75 7 75 46 0 32 -36 54 -88
54 -76 0 -128 75 -85 122 18 21 16 20 37 12z m127 -36 l78 -22 -67 -23 c-85
-29 -138 -30 -152 -4 -16 30 -12 43 10 36 13 -4 23 0 32 14 16 25 6 26 99 -1z
m134 -58 c3 0 3 4 0 10 -4 6 2 7 17 1 13 -4 24 -18 26 -30 2 -11 11 -26 20
-33 16 -12 17 -30 11 -168 -3 -85 -6 -147 -7 -137 -2 20 -45 67 -62 67 -6 0
-22 -11 -36 -25 -20 -20 -23 -29 -15 -44 14 -25 40 -34 57 -20 11 9 14 7 14
-10 0 -47 -93 -47 -119 0 -19 35 -8 74 33 112 45 42 58 70 58 123 0 26 4 42 9
38 16 -10 39 17 39 45 0 32 -26 72 -43 65 -7 -2 -21 3 -32 11 -19 16 -19 16 2
6 12 -6 24 -11 28 -11z m-10 -24 c16 -11 17 -15 4 -33 -14 -19 -15 -19 -57 14
l-44 33 39 0 c22 0 48 -6 58 -14z m37 -78 c-13 -13 -32 -2 -32 19 0 9 6 13 15
9 10 -3 15 1 16 12 1 10 4 7 6 -7 3 -13 0 -28 -5 -33z m-417 3 c19 -8 19 -8
-2 -15 -26 -8 -65 -54 -57 -67 3 -5 -1 -9 -9 -9 -31 0 -35 52 -7 80 21 21 41
24 75 11z m-100 -46 c0 -45 -10 -53 -29 -23 -7 11 -6 24 2 42 17 39 28 32 27
-19z m-43 10 c-2 -14 1 -32 8 -40 10 -12 9 -16 -5 -22 -18 -6 -45 19 -45 43 0
10 36 44 46 44 1 0 -1 -11 -4 -25z m226 1 c32 -17 66 -53 76 -81 7 -19 6 -19
-16 1 -50 46 -115 58 -154 29 -10 -8 -22 -15 -26 -15 -15 0 -8 37 10 52 34 30
70 35 110 14z m-259 -125 c-8 -50 -31 -91 -51 -91 -5 0 -4 9 2 19 5 11 10 43
10 71 0 28 5 60 11 72 10 19 11 19 24 1 9 -13 11 -32 4 -72z m269 65 c45 -24
79 -68 97 -126 27 -90 42 -117 81 -147 119 -91 144 -131 152 -234 5 -79 -12
-146 -66 -252 l-39 -75 -10 51 c-10 48 -9 55 21 111 28 53 31 69 31 145 0 115
-25 160 -130 231 -63 42 -76 56 -83 88 -5 20 -14 60 -21 87 -14 59 -40 85 -86
85 -41 0 -64 24 -38 39 25 15 59 13 91 -3z m-613 -55 c-3 -3 -18 8 -33 23
l-27 29 32 -23 c18 -13 30 -26 28 -29z m516 20 c68 -30 79 -48 81 -122 2 -69
-8 -113 -23 -104 -5 3 -6 -1 -3 -9 4 -10 -7 -29 -29 -51 -44 -44 -101 -49
-134 -12 -36 39 -46 69 -51 160 l-5 90 46 -5 c53 -6 54 8 2 18 -28 5 -35 11
-35 29 0 40 70 43 151 6z m99 -41 c15 -28 29 -110 19 -110 -5 0 -9 3 -9 8 -2
31 -14 90 -21 105 -6 9 -7 17 -5 17 3 0 10 -9 16 -20z m-297 -102 c-19 -33
-152 -140 -164 -133 -6 4 -40 -29 -54 -54 -5 -9 -4 -12 3 -7 15 9 15 5 -4 -62
-18 -60 -14 -164 6 -202 6 -12 10 -26 7 -33 -2 -6 -12 12 -22 42 -11 29 -21
48 -23 43 -6 -18 38 -103 50 -96 8 5 9 2 5 -9 -4 -10 -2 -16 6 -14 7 1 12 -7
12 -18 1 -11 7 -19 14 -17 7 1 15 -7 18 -18 3 -11 9 -17 14 -14 11 7 11 -47 0
-64 -7 -12 -13 -11 -37 1 -77 40 -147 159 -160 273 -5 38 0 67 20 124 14 41
24 75 22 77 -11 11 -37 -15 -62 -60 -26 -48 -29 -60 -29 -154 0 -108 -5 -117
-24 -41 -36 149 16 294 122 344 27 12 43 24 38 25 -19 7 19 50 56 66 24 10 51
12 88 8 39 -5 60 -3 81 9 39 20 39 21 17 -16z m-4 -60 c-18 -34 -82 -118 -87
-114 -2 3 1 14 8 25 18 34 5 24 -25 -19 -15 -22 -25 -43 -22 -46 3 -3 8 4 12
15 3 12 11 21 17 21 6 0 7 -7 3 -17 -37 -89 -45 -180 -21 -237 12 -29 12 -35
-4 -56 -13 -18 -16 -30 -9 -54 12 -42 6 -42 -24 1 -75 109 -78 273 -7 373 11
15 44 44 72 63 29 19 62 44 72 56 24 26 32 21 15 -11z m34 -63 c-3 -11 -19
-42 -37 -70 -27 -43 -31 -59 -31 -120 -1 -48 -5 -69 -13 -68 -6 2 -9 -3 -7
-10 5 -15 -33 -63 -43 -53 -3 4 -8 40 -10 81 -5 94 14 153 73 225 25 30 49 66
52 80 6 24 7 23 14 -10 5 -19 6 -44 2 -55z m334 5 c-10 -13 -10 -13 5 -2 17
14 43 8 33 -8 -3 -5 0 -12 6 -16 8 -4 9 -3 5 4 -19 32 65 -19 92 -55 15 -21
16 -36 0 -27 -7 4 -8 3 -4 -5 4 -6 11 -9 16 -6 17 10 32 -68 28 -140 -3 -51
-12 -84 -29 -114 l-24 -43 -7 43 c-5 24 -14 69 -20 99 -7 30 -12 64 -11 75 1
11 -1 14 -4 7 -3 -9 -15 -3 -39 18 -19 16 -38 30 -42 30 -5 0 -13 15 -20 33
-12 33 -82 110 -82 90 0 -6 9 -30 20 -54 11 -24 20 -50 20 -56 0 -19 -47 -16
-54 3 -19 49 9 154 41 154 7 0 18 8 25 19 11 17 12 17 34 -8 18 -21 20 -29 11
-41z m-297 -117 c-10 -64 -31 -103 -53 -103 -16 0 -2 131 18 172 17 35 19 36
32 18 11 -15 11 -33 3 -87z m-246 72 c-9 -14 -19 -23 -22 -20 -5 4 26 45 35
45 2 0 -4 -11 -13 -25z m413 -111 c-116 -76 -159 -109 -190 -143 l-37 -41 0
45 c0 37 5 50 34 78 27 27 35 44 40 90 l7 56 48 -6 c27 -3 57 -1 67 5 17 10
20 6 26 -36 4 -25 6 -47 5 -48z m101 46 c6 -16 7 -30 2 -30 -11 0 -16 8 -24
43 -9 37 9 27 22 -13z m-658 -21 c-14 -25 -30 -190 -18 -183 5 3 8 -2 8 -12 0
-51 128 -218 180 -236 22 -7 -11 -51 -70 -94 -46 -33 -62 -54 -42 -54 4 0 47
-7 97 -14 100 -15 111 -13 122 17 6 20 7 19 13 -8 5 -30 6 -30 95 -42 50 -6
105 -12 123 -12 30 -1 32 1 32 34 0 19 5 35 10 35 6 0 30 -18 54 -40 24 -22
47 -40 51 -40 4 0 5 16 2 35 l-6 35 26 -30 c28 -34 78 -63 96 -57 7 2 17 -2
22 -10 6 -7 39 -16 78 -20 73 -6 78 -3 53 46 -27 52 -67 212 -61 242 4 17 11
26 17 23 6 -4 8 -2 5 4 -10 15 3 43 16 35 5 -3 7 -1 4 4 -4 6 5 36 18 66 14
31 30 75 35 99 6 27 7 -52 3 -222 -4 -146 -7 -306 -8 -357 l0 -91 -26 5 c-30
6 -54 -18 -46 -47 4 -17 2 -20 -15 -15 -21 7 -58 -19 -58 -41 0 -19 40 -43 59
-36 14 5 14 4 2 -11 -18 -22 -79 -22 -103 0 -27 25 -23 52 12 64 34 12 46 39
30 69 -9 16 -19 20 -50 18 -21 -2 -38 -5 -37 -8 1 -3 -7 -19 -16 -37 -23 -43
-21 -64 8 -107 21 -31 22 -37 8 -32 -10 3 -70 12 -133 21 -174 24 -202 34 -79
28 105 -6 107 -5 133 20 14 14 26 34 26 44 0 28 -29 63 -51 63 -20 0 -20 0 0
26 12 15 21 32 21 38 0 13 -44 -54 -45 -68 0 -5 -6 -11 -12 -14 -9 -2 -13 11
-13 47 0 48 -2 52 -34 67 -25 12 -32 21 -29 35 7 25 -14 49 -43 49 -24 0 -45
-26 -37 -47 3 -7 -7 -11 -28 -10 -32 2 -37 -3 -58 -57 -11 -27 -12 -28 -31
-11 -27 25 -64 13 -81 -26 -18 -45 2 -77 70 -111 63 -32 54 -33 -89 -9 -97 17
-103 19 -79 31 58 27 89 138 53 188 -21 30 -61 26 -87 -9 -15 -22 -17 -30 -8
-48 7 -11 18 -21 26 -21 21 0 18 -27 -5 -50 -21 -21 -46 -28 -35 -10 3 6 1 10
-5 10 -8 0 -8 6 0 21 14 25 6 36 -14 20 -8 -7 -13 -23 -10 -37 4 -20 0 -24
-20 -24 -31 0 -56 10 -56 22 0 5 5 6 10 3 14 -9 60 21 60 38 0 7 -6 22 -14 33
-13 17 -17 17 -37 6 -20 -13 -21 -12 -14 5 9 20 11 50 4 73 -2 9 2 14 11 11 8
-2 22 -4 30 -5 9 -1 21 -5 27 -9 16 -10 60 2 66 17 3 8 -7 11 -29 11 -18 -1
-31 2 -28 7 9 14 -9 9 -28 -9 -18 -16 -18 -16 -12 0 4 13 1 17 -15 17 -12 0
-24 -7 -27 -15 -5 -11 -11 -12 -26 -4 -36 20 -93 -35 -71 -69 14 -23 29 -25
47 -7 21 21 21 0 1 -35 -21 -37 -18 -68 11 -97 l26 -26 -32 7 c-18 3 -39 6
-46 6 -8 0 -14 10 -14 21 0 12 -6 27 -14 33 -12 9 -11 62 10 365 13 195 26
356 29 359 3 3 5 -10 5 -29 1 -19 7 -52 15 -73 8 -22 11 -44 8 -50 -3 -6 -2
-8 2 -3 5 4 16 0 26 -9 19 -17 19 -13 4 88 -8 53 35 231 52 214 3 -2 -1 -14
-7 -27z m-103 -56 c-3 -10 -5 -2 -5 17 0 19 2 27 5 18 2 -10 2 -26 0 -35z
m415 -5 c2 -20 0 -34 -4 -32 -4 3 -8 24 -7 47 1 47 6 41 11 -15z m402 21 c38
-30 54 -67 71 -161 18 -101 99 -397 120 -438 23 -44 19 -49 -27 -43 -59 8 -78
20 -78 48 0 13 -14 61 -30 107 -17 45 -28 91 -24 103 3 13 2 16 -4 7 -6 -9
-18 17 -36 80 -16 51 -37 105 -47 121 -21 29 -6 39 21 15 12 -11 12 -10 1 5
-14 18 -46 23 -55 8 -3 -5 1 -14 9 -21 16 -13 19 -62 6 -95 -7 -18 -9 -18 -25
7 -24 37 -31 98 -17 155 31 126 30 123 60 123 16 0 40 -9 55 -21z m-120 -55
c-12 -43 -15 -78 -11 -135 6 -69 4 -78 -14 -91 -13 -9 -20 -26 -21 -55 -1 -38
-4 -43 -30 -49 -47 -10 -92 4 -124 37 -21 22 -24 28 -10 23 17 -7 18 -4 13 26
-4 18 -7 41 -7 52 0 36 -20 7 -21 -30 l-1 -37 -13 30 c-32 70 -9 140 62 189
130 89 166 108 126 64 -9 -10 -14 -21 -11 -24 4 -3 14 8 24 25 28 47 34 37 13
-20 -11 -28 -18 -54 -15 -56 2 -3 14 23 27 56 27 76 36 73 13 -5z m-287 -46
c-2 -7 -7 -24 -11 -38 -7 -24 -6 -24 8 -6 15 19 16 17 16 -30 0 -27 4 -65 9
-85 5 -21 5 -43 1 -49 -5 -8 -13 9 -20 43 -7 31 -16 54 -20 52 -10 -6 7 -94
20 -111 8 -8 8 -14 1 -19 -6 -3 -15 4 -20 17 -5 13 -13 34 -19 48 l-11 25 0
-28 c-1 -15 6 -41 14 -57 9 -17 11 -30 6 -30 -18 0 -69 76 -76 112 -6 33 -2
41 47 102 54 66 64 76 55 54z m404 -278 c28 -83 43 -143 43 -177 1 -29 -2 -53
-5 -53 -16 0 -62 46 -85 86 -14 24 -38 54 -54 67 l-28 24 28 48 c16 27 34 68
41 92 6 24 13 42 14 41 2 -2 22 -59 46 -128z m-83 84 c8 -5 -29 -62 -43 -67
-11 -5 -15 1 -15 24 0 17 5 39 11 50 9 17 13 18 27 7 9 -7 18 -13 20 -14z
m-214 -93 c40 -25 93 -27 144 -6 l37 16 -32 -31 c-32 -31 -63 -104 -63 -147 0
-14 -6 -23 -15 -23 -15 0 -41 38 -37 56 1 6 -8 16 -20 23 -13 6 -15 9 -5 7 9
-3 17 -1 17 4 0 6 -4 10 -10 10 -5 0 -10 7 -10 15 0 15 -30 35 -52 35 -8 -1
-6 -6 6 -15 11 -8 16 -15 10 -15 -5 0 -2 -6 7 -13 9 -7 16 -14 17 -17 3 -19
23 -59 31 -65 28 -17 5 -21 -61 -11 l-73 11 -7 40 c-13 75 -9 121 12 140 11
10 22 27 26 38 6 20 7 20 26 -6 10 -14 34 -35 52 -46z m-166 22 c26 -36 32
-109 14 -152 -7 -19 -17 -30 -20 -25 -4 5 -40 10 -81 12 -41 1 -77 4 -79 7 -3
2 11 17 29 32 57 47 79 75 91 115 13 45 20 47 46 11z m371 -147 c26 -53 27
-80 3 -50 -10 11 -29 28 -44 38 -24 16 -25 20 -16 47 13 36 27 27 57 -35z
m158 -78 c-3 -7 -5 -2 -5 12 0 14 2 19 5 13 2 -7 2 -19 0 -25z m-819 -60 c7
-7 12 -23 12 -37 -1 -23 -2 -24 -11 -9 -5 10 -19 23 -30 29 -19 9 -20 8 -14
-10 5 -15 2 -21 -9 -21 -19 0 -21 31 -4 48 7 7 19 12 28 12 9 0 21 -5 28 -12z
m532 -4 c11 -12 11 -18 -2 -30 -18 -18 -48 -8 -48 15 0 33 28 42 50 15z m-314
-62 c9 -48 -14 -113 -46 -129 -14 -7 -47 -12 -75 -12 l-50 2 40 6 c54 10 84
27 95 57 16 40 12 54 -12 51 -32 -3 -37 36 -7 56 30 21 47 11 55 -31z m262 1
c2 -8 -6 -13 -22 -13 -21 0 -26 -5 -26 -24 0 -32 -53 -88 -74 -80 -14 6 -15 8
-2 18 21 16 56 78 56 99 0 14 7 18 32 15 17 -2 33 -9 36 -15z m52 -8 c0 -8 -6
-15 -14 -15 -8 0 -16 7 -20 15 -4 10 1 15 14 15 11 0 20 -7 20 -15z m-515 -45
c9 -7 15 -8 20 0 3 5 1 10 -6 10 -10 0 -10 3 -1 12 16 16 37 -4 29 -26 -7 -18
-42 -22 -52 -6 -3 6 -10 10 -15 10 -14 0 8 -51 28 -66 24 -19 6 -17 -23 2 -28
18 -33 60 -13 97 l13 22 3 -22 c2 -12 9 -27 17 -33z m566 39 c16 -8 19 -17 14
-38 -3 -14 1 -46 9 -69 8 -23 11 -42 7 -42 -11 0 -28 44 -36 92 -3 20 -12 39
-20 42 -17 6 -20 26 -4 26 6 0 19 -5 30 -11z m-237 -42 c8 -13 6 -21 -7 -34
-17 -17 -18 -17 -23 4 -4 13 -10 20 -15 18 -16 -10 3 -36 40 -55 87 -44 290
-72 326 -46 17 12 18 17 7 28 -11 11 -13 11 -10 -1 2 -8 -5 -17 -15 -19 -15
-3 -18 1 -15 20 2 17 9 23 27 23 36 0 48 -27 27 -60 l-18 -28 -107 6 c-129 7
-231 36 -260 74 -25 31 -26 51 -4 75 19 21 32 20 47 -5z m186 13 c13 0 21 -12
28 -42 5 -24 13 -52 17 -62 8 -18 5 -19 -41 -13 -27 3 -73 11 -103 18 -53 11
-54 12 -34 28 12 9 28 31 38 50 15 29 20 33 47 27 17 -3 39 -6 48 -6z m318
-88 c-2 -9 -14 -19 -28 -21 -14 -1 -28 -8 -32 -15 -14 -21 -8 -63 12 -81 27
-24 93 -25 119 -1 30 27 28 48 -4 40 -29 -7 -56 11 -48 32 3 8 15 14 27 12 11
-2 19 -7 16 -13 -3 -5 -9 -9 -13 -7 -5 1 -6 -2 -2 -8 10 -17 25 -11 34 12 7
20 8 19 14 -12 13 -61 -31 -98 -98 -86 -42 8 -79 37 -94 75 -23 54 35 124 82
99 10 -5 17 -17 15 -26z m127 13 c0 -10 -5 -20 -11 -22 -13 -4 -27 24 -18 38
9 15 29 4 29 -16z m1 -137 c-9 -5 -16 -16 -16 -23 0 -9 -10 -15 -25 -15 l-24
0 24 25 c19 18 25 35 25 69 0 65 24 67 28 3 2 -38 -1 -53 -12 -59z m-543 45
c-7 -2 -19 -2 -25 0 -7 3 -2 5 12 5 14 0 19 -2 13 -5z"/>
<path d="M1359 2428 c-13 -39 5 -98 23 -80 12 12 2 82 -12 82 -6 0 -10 -1 -11
-2z"/>
<path d="M1465 2169 c-8 -13 -7 -15 25 -24 25 -8 25 -8 6 14 -22 24 -23 25
-31 10z"/>
<path d="M1748 2453 c6 -2 18 -2 25 0 6 3 1 5 -13 5 -14 0 -19 -2 -12 -5z"/>
<path d="M1937 2335 c-9 -8 -21 -15 -27 -15 -7 0 -10 -7 -6 -15 3 -8 0 -15 -6
-15 -6 0 -9 -3 -5 -6 3 -3 15 -3 28 1 17 6 19 9 8 16 -11 7 -11 9 2 9 9 0 20
7 23 16 9 24 1 28 -17 9z"/>
<path d="M1805 2230 c-3 -6 1 -7 9 -4 18 7 21 14 7 14 -6 0 -13 -4 -16 -10z"/>
<path d="M1725 2209 c-4 -6 -5 -12 -2 -15 2 -3 7 2 10 11 7 17 1 20 -8 4z"/>
<path d="M1626 2148 c30 -40 58 -50 52 -21 -2 10 -12 19 -23 21 -11 2 -29 11
-39 21 -11 9 -6 -1 10 -21z"/>
<path d="M2128 2043 c7 -3 16 -2 19 1 4 3 -2 6 -13 5 -11 0 -14 -3 -6 -6z"/>
<path d="M1426 1985 c-9 -13 -16 -30 -16 -37 0 -7 -9 -24 -20 -38 -28 -35 -25
-43 10 -25 24 12 30 22 30 49 0 18 3 36 7 40 7 7 14 36 8 36 -1 0 -10 -11 -19
-25z"/>
<path d="M1558 1963 c7 -3 16 -2 19 1 4 3 -2 6 -13 5 -11 0 -14 -3 -6 -6z"/>
<path d="M2285 1800 c10 -11 20 -20 23 -20 3 0 -3 9 -13 20 -10 11 -20 20 -23
20 -3 0 3 -9 13 -20z"/>
<path d="M2135 2340 c-3 -5 -2 -10 4 -10 5 0 18 -3 28 -7 17 -6 17 -6 1 10
-19 20 -24 21 -33 7z"/>
<path d="M1774 1999 c-3 -6 -1 -16 6 -22 9 -9 11 -9 8 2 -2 8 6 17 16 19 14 3
17 0 12 -13 -5 -13 -2 -16 10 -11 8 3 18 6 21 6 3 0 0 7 -7 15 -14 17 -56 20
-66 4z"/>
<path d="M1896 2002 c-3 -5 8 -9 25 -9 16 0 34 -4 40 -10 7 -7 3 -9 -15 -6
-31 6 -36 -17 -8 -38 15 -13 16 -12 3 4 -16 21 -11 30 13 21 9 -4 15 -13 12
-20 -3 -8 1 -14 9 -14 25 0 15 57 -12 69 -28 13 -60 14 -67 3z"/>
<path d="M1850 1896 c0 -2 7 -6 15 -10 8 -3 15 -1 15 4 0 6 -7 10 -15 10 -8 0
-15 -2 -15 -4z"/>
<path d="M1981 1874 c0 -11 3 -14 6 -6 3 7 2 16 -1 19 -3 4 -6 -2 -5 -13z"/>
<path d="M1835 1860 c-3 -4 8 -10 25 -12 16 -2 27 -1 25 3 -7 11 -44 18 -50 9z"/>
<path d="M1835 1830 c3 -5 16 -10 28 -9 21 0 21 1 2 9 -28 12 -37 12 -30 0z"/>
<path d="M1570 1870 c-24 -8 -24 -8 7 -9 17 -1 35 4 38 9 7 11 -9 11 -45 0z"/>
<path d="M1508 1853 c6 -2 18 -2 25 0 6 3 1 5 -13 5 -14 0 -19 -2 -12 -5z"/>
<path d="M1487 1713 c-4 -3 -7 -13 -7 -22 1 -13 3 -13 11 2 11 19 8 33 -4 20z"/>
<path d="M1471 1654 c0 -11 3 -14 6 -6 3 7 2 16 -1 19 -3 4 -6 -2 -5 -13z"/>
<path d="M1462 1600 c0 -14 2 -19 5 -12 2 6 2 18 0 25 -3 6 -5 1 -5 -13z"/>
<path d="M1572 1668 c-4 -18 -5 -60 -1 -93 l7 -60 0 60 c0 33 0 62 1 65 5 12
9 60 6 60 -2 0 -8 -15 -13 -32z"/>
<path d="M1581 1505 c1 -19 18 -51 18 -35 0 8 -4 22 -9 30 -5 8 -9 11 -9 5z"/>
<path d="M1642 1640 c0 -19 2 -27 5 -17 2 9 2 25 0 35 -3 9 -5 1 -5 -18z"/>
<path d="M1642 1540 c0 -14 2 -19 5 -12 2 6 2 18 0 25 -3 6 -5 1 -5 -13z"/>
<path d="M1833 1613 c-18 -9 -33 -20 -33 -25 0 -5 18 1 40 12 22 11 40 23 40
25 0 8 -13 5 -47 -12z"/>
<path d="M2351 1434 c0 -11 3 -14 6 -6 3 7 2 16 -1 19 -3 4 -6 -2 -5 -13z"/>
<path d="M1313 1351 c1 -36 7 -56 16 -59 9 -3 11 0 6 7 -4 7 -11 33 -15 59
l-9 47 2 -54z"/>
<path d="M1395 1290 c17 -7 15 -9 -11 -9 -34 -1 -45 -15 -35 -43 6 -16 9 -16
46 2 l40 19 -45 -5 c-33 -3 -40 -2 -25 5 11 5 29 10 41 10 11 1 21 8 21 16 0
10 -10 15 -26 14 -24 0 -24 -1 -6 -9z"/>
<path d="M2335 1233 c-4 -13 -11 -23 -16 -23 -4 0 -7 -9 -6 -20 1 -11 5 -20
11 -20 5 0 1 -9 -8 -19 -13 -14 -14 -21 -5 -27 8 -4 10 -3 5 4 -4 7 -1 12 8
12 19 0 29 35 23 81 -4 30 -5 32 -12 12z"/>
<path d="M1385 1216 c-16 -13 -27 -28 -23 -32 4 -4 3 -13 -4 -21 -14 -17 -2
-31 13 -16 6 6 17 9 23 7 15 -6 52 33 42 43 -4 4 -11 1 -16 -7 -8 -13 -10 -13
-10 0 0 11 -3 11 -12 2 -7 -7 -17 -12 -22 -12 -6 0 5 13 24 30 42 35 28 40
-15 6z"/>
<path d="M1663 1004 c-17 -14 -22 -23 -14 -24 8 0 23 8 33 17 18 16 18 16 12
0 -7 -18 11 -24 21 -7 4 6 10 8 15 5 5 -3 13 3 19 13 9 17 6 19 -24 19 -21 0
-45 -9 -62 -23z"/>
<path d="M1958 1023 c6 -2 18 -2 25 0 6 3 1 5 -13 5 -14 0 -19 -2 -12 -5z"/>
<path d="M2024 1007 c-2 -7 0 -24 5 -38 9 -21 10 -20 8 13 -2 41 -5 46 -13 25z"/>
<path d="M2191 976 c2 -2 20 -6 39 -10 25 -4 31 -3 20 4 -14 9 -69 15 -59 6z"/>
<path d="M2270 966 c0 -2 6 -9 14 -15 10 -9 15 -8 20 4 4 10 -1 15 -14 15 -11
0 -20 -2 -20 -4z"/>
<path d="M2310 936 c0 -2 8 -10 18 -17 15 -13 16 -12 3 4 -13 16 -21 21 -21
13z"/>
<path d="M2183 887 c0 -25 2 -28 23 -23 14 4 24 2 24 -4 0 -7 7 -7 21 0 11 7
27 9 34 6 7 -2 19 2 25 10 10 12 8 13 -16 10 -16 -2 -38 -7 -49 -12 -18 -7
-18 -6 -6 9 16 20 1 23 -18 5 -10 -11 -11 -9 -5 7 7 17 6 18 -8 7 -13 -10 -17
-10 -21 0 -2 7 -4 0 -4 -15z"/>
<path d="M2111 1394 c0 -11 3 -14 6 -6 3 7 2 16 -1 19 -3 4 -6 -2 -5 -13z"/>
<path d="M2132 1300 c0 -14 2 -19 5 -12 2 6 2 18 0 25 -3 6 -5 1 -5 -13z"/>
<path d="M1826 1403 c-9 -40 14 -152 27 -132 1 2 1 39 -1 82 -4 78 -15 100
-26 50z"/>
<path d="M1866 1355 c4 -8 11 -15 16 -15 6 0 5 6 -2 15 -7 8 -14 15 -16 15 -2
0 -1 -7 2 -15z"/>
<path d="M1920 1320 c0 -16 5 -30 10 -30 6 0 10 14 10 30 0 17 -4 30 -10 30
-5 0 -10 -13 -10 -30z"/>
<path d="M2040 1186 c0 -2 8 -10 18 -17 15 -13 16 -12 3 4 -13 16 -21 21 -21
13z"/>
<path d="M2100 1100 c5 -9 17 -23 27 -31 17 -13 17 -12 0 8 -11 12 -16 26 -13
31 3 5 -1 9 -9 9 -10 0 -11 -5 -5 -17z"/>
<path d="M1740 1236 c0 -2 7 -7 16 -10 8 -3 12 -2 9 4 -6 10 -25 14 -25 6z"/>
<path d="M1650 1159 c0 -5 5 -7 10 -4 6 3 10 8 10 11 0 2 -4 4 -10 4 -5 0 -10
-5 -10 -11z"/>
<path d="M2300 2437 c0 -2 35 -17 78 -32 134 -47 122 -18 124 -293 l2 -237 5
230 c5 181 3 235 -7 252 -9 15 -41 31 -95 49 -45 15 -88 29 -94 32 -7 2 -13 2
-13 -1z"/>
<path d="M590 2304 c-107 -77 -110 -81 -109 -111 l1 -28 7 29 c4 21 24 43 71
77 67 49 92 61 69 32 -12 -14 -12 -16 1 -11 8 2 15 12 15 20 0 8 6 23 14 32
20 24 12 20 -69 -40z"/>
<path d="M690 2340 c-6 -11 -8 -20 -6 -20 3 0 10 9 16 20 6 11 8 20 6 20 -3 0
-10 -9 -16 -20z"/>
<path d="M571 2237 c-17 -23 -31 -45 -31 -51 0 -6 15 11 34 37 19 26 36 42 38
35 3 -8 6 -7 10 3 12 31 -21 15 -51 -24z"/>
<path d="M472 2120 c0 -19 2 -27 5 -17 2 9 2 25 0 35 -3 9 -5 1 -5 -18z"/>
<path d="M502 2105 c-7 -14 -12 -31 -12 -38 1 -7 7 3 16 22 17 39 13 54 -4 16z"/>
<path d="M2501 1764 c0 -11 3 -14 6 -6 3 7 2 16 -1 19 -3 4 -6 -2 -5 -13z"/>
<path d="M1131 1694 c0 -11 3 -14 6 -6 3 7 2 16 -1 19 -3 4 -6 -2 -5 -13z"/>
<path d="M2494 1365 c0 -187 2 -262 3 -167 2 95 2 248 0 340 -1 92 -3 14 -3
-173z"/>
<path d="M1226 1625 c-9 -26 -7 -32 5 -12 6 10 9 21 6 23 -2 3 -7 -2 -11 -11z"/>
<path d="M1232 1490 c0 -19 2 -27 5 -17 2 9 2 25 0 35 -3 9 -5 1 -5 -18z"/>
<path d="M2442 1048 c-15 -15 -16 -32 -1 -23 6 4 10 1 8 -6 -3 -25 1 -42 8
-35 11 10 11 46 0 46 -5 0 -4 7 3 15 15 18 -1 20 -18 3z"/>
<path d="M2492 980 c0 -14 2 -19 5 -12 2 6 2 18 0 25 -3 6 -5 1 -5 -13z"/>
<path d="M2455 960 c-3 -5 -1 -10 4 -10 6 0 11 5 11 10 0 6 -2 10 -4 10 -3 0
-8 -4 -11 -10z"/>
<path d="M1185 860 c-3 -5 -1 -10 4 -10 6 0 11 5 11 10 0 6 -2 10 -4 10 -3 0
-8 -4 -11 -10z"/>
<path d="M966 786 c3 -9 11 -16 16 -16 13 0 5 23 -10 28 -7 2 -10 -2 -6 -12z"/>
<path d="M1195 729 c-4 -6 -5 -13 -2 -16 7 -7 27 6 27 18 0 12 -17 12 -25 -2z"/>
<path d="M1295 694 c-11 -17 -13 -25 -4 -22 16 5 44 48 31 48 -5 0 -17 -12
-27 -26z"/>
<path d="M1332 698 c-14 -14 -16 -28 -3 -28 9 0 24 30 18 36 -2 2 -9 -2 -15
-8z"/>
<path d="M2483 655 c0 -27 2 -38 4 -22 2 15 2 37 0 50 -2 12 -4 0 -4 -28z"/>
<path d="M1768 663 c7 -3 16 -2 19 1 4 3 -2 6 -13 5 -11 0 -14 -3 -6 -6z"/>
<path d="M335 619 c-24 -45 -12 -58 13 -15 25 42 26 46 12 46 -5 0 -17 -14
-25 -31z"/>
<path d="M2431 634 c0 -11 3 -14 6 -6 3 7 2 16 -1 19 -3 4 -6 -2 -5 -13z"/>
<path d="M438 596 c-39 -48 -35 -57 7 -16 19 19 35 38 35 42 0 17 -16 7 -42
-26z"/>
<path d="M1174 616 c-10 -8 -16 -18 -12 -22 4 -4 15 -1 25 7 11 9 14 10 9 2
-4 -8 -2 -13 6 -13 18 1 53 28 45 36 -4 4 -13 1 -22 -6 -10 -8 -15 -9 -15 -1
0 15 -12 14 -36 -3z"/>
<path d="M1990 626 c0 -9 30 -14 35 -6 4 6 -3 10 -14 10 -12 0 -21 -2 -21 -4z"/>
<path d="M2078 623 c6 -2 18 -2 25 0 6 3 1 5 -13 5 -14 0 -19 -2 -12 -5z"/>
<path d="M345 580 c-15 -23 -24 -45 -20 -48 4 -4 11 1 16 10 5 10 16 15 23 12
17 -6 84 51 74 62 -4 4 -17 -5 -29 -19 -26 -33 -56 -38 -39 -6 22 39 1 31 -25
-11z"/>
<path d="M1258 603 c-19 -5 -25 -23 -9 -23 17 0 41 12 41 21 0 9 -4 10 -32 2z"/>
<path d="M2377 603 c-4 -3 -7 -11 -7 -17 0 -6 5 -5 12 2 6 6 9 14 7 17 -3 3
-9 2 -12 -2z"/>
<path d="M1341 589 c-13 -5 -21 -12 -18 -15 9 -9 57 5 57 16 0 12 -7 12 -39
-1z"/>
<path d="M2422 580 c0 -14 2 -19 5 -12 2 6 2 18 0 25 -3 6 -5 1 -5 -13z"/>
<path d="M2303 583 c-13 -2 -24 -7 -24 -11 -9 -52 -7 -63 6 -52 8 7 22 10 30
6 9 -3 13 -2 10 3 -3 5 -1 12 5 16 5 3 10 0 10 -7 0 -8 6 -7 17 5 16 16 16 18
-2 32 -11 8 -22 14 -25 13 -3 0 -15 -3 -27 -5z"/>
<path d="M590 535 c0 -2 9 -9 20 -15 16 -9 20 -8 20 5 0 8 -9 15 -20 15 -11 0
-20 -2 -20 -5z"/>
<path d="M550 522 c0 -5 9 -12 21 -15 13 -3 19 -1 16 6 -5 15 -37 22 -37 9z"/>
<path d="M1678 333 c7 -3 16 -2 19 1 4 3 -2 6 -13 5 -11 0 -14 -3 -6 -6z"/>
</g>
</svg>
